<svg id="icon-165" xmlns="http://www.w3.org/2000/svg" viewBox="0 0 50 13.9" stroke="none" preserveAspectRatio="none"><path d="M47.1 5.2C41.9 6.1 25 2.7 25 2.7c-2-.4-4.1-.8-6.4-1.3C2.6-1.7 0 2.1 0 2.1v7.8c.2-.2 1-.9 2.9-1.2 5.2-.9 10.4.4 22.1 2.4 2 .4 4.1.8 6.4 1.3 16 3.2 18.6-.6 18.6-.6v-8c-.1.4-1 1-2.9 1.4z"/><path d="M48.1 4.4c1.8-.5 2-1 1.7-1.4-.3-.5-2-.4-4.7-.8-1.5-.2-1.8-.4-1.9-.9 0 0-.1-.4.1-.6-.3 0-.3.9-.3.9v3.1s3.3.2 5.1-.3z"/><path d="M44 1.6c.8.2 3.3.5 3.3.5V.8h-3.6s-.5.6.3.8zM1.8 9.3C.1 9.9-.1 10.4.1 10.7c.3.5 2 .4 4.7.8 1.5.2 1.8.4 1.9.9 0 0 .1.4-.1.6.3 0 .3-.9.3-.9V9s-3.3-.2-5.1.3z"/><path d="M5.9 12.2c-.8-.2-3.3-.5-3.3-.5V13h3.6s.5-.6-.3-.8z"/></svg>