<svg id="icon-233" xmlns="http://www.w3.org/2000/svg" viewBox="0 0 50 50" stroke="none" preserveAspectRatio="none"><path d="M40.9.5H9.1c-1 0-1.9.8-1.9 1.9v45.2c0 1 .8 1.9 1.9 1.9h31.7c1 0 1.9-.8 1.9-1.9V2.4c.1-1-.8-1.9-1.8-1.9zm-27.5 8h13.4c.2 0 .4.2.4.4s-.2.4-.4.4H13.4c-.2 0-.4-.2-.4-.4s.2-.4.4-.4zm0 4.6h19.4c.2 0 .4.2.4.4s-.2.4-.4.4H13.4c-.2 0-.4-.2-.4-.4s.2-.4.4-.4zM30.3 18c0 .3-.2.5-.4.5H13.4c-.2 0-.4-.2-.4-.4V18c0-.2.2-.4.4-.4h16.5c.2 0 .4.2.4.4zm-17.4 9.3c0-.2.2-.4.4-.4H32c.2 0 .4.2.4.4v.1c0 .2-.2.4-.4.4H13.3c-.2-.1-.4-.2-.4-.5zM27.2 32c0 .2-.2.4-.4.4H13.4c-.2 0-.4-.2-.4-.4s.2-.4.4-.4h13.4c.2 0 .4.2.4.4zm-13.9 4.2h19.4c.2 0 .4.2.4.4s-.2.4-.4.4H13.3c-.2 0-.4-.2-.4-.4s.2-.4.4-.4zm23.8 5c0 .2-.2.4-.4.4H13.3c-.2 0-.4-.2-.4-.4v-.1c0-.2.2-.4.4-.4h23.4c.2.1.4.2.4.5zm0-18.5c0 .2-.2.4-.4.4H13.3c-.2 0-.4-.2-.4-.4v-.1c0-.2.2-.4.4-.4h23.4c.2.1.4.2.4.5z"/></svg>