<svg id="icon-33" xmlns="http://www.w3.org/2000/svg" preserveAspectRatio="none" viewBox="0 0 51 51" stroke="none" >
    <path style="fill-rule:evenodd;clip-rule:evenodd;" d="M50.829,24.856c-0.279-1.086-1.227-1.987-1.35-2.99
        c-0.015-0.123-0.043-0.241-0.083-0.357c-0.001-0.111-0.013-0.221-0.037-0.33c-0.209-0.991,0.395-2.142,0.307-3.269
        c-0.041-0.529-0.157-1.04-0.353-1.535c-0.184-0.493-0.44-0.952-0.763-1.373c-0.683-0.89-1.906-1.35-2.413-2.226
        c-0.061-0.106-0.134-0.206-0.217-0.296c-0.043-0.101-0.097-0.198-0.162-0.289c-0.581-0.831-0.474-2.125-0.995-3.128
        c-0.246-0.471-0.553-0.897-0.924-1.276c-0.363-0.382-0.777-0.704-1.239-0.964c-0.983-0.557-2.28-0.497-3.09-1.106
        c-0.099-0.074-0.204-0.138-0.316-0.188c-0.082-0.077-0.17-0.145-0.264-0.204c-0.857-0.537-1.272-1.775-2.138-2.489
        c-0.41-0.338-0.859-0.61-1.35-0.813c-0.483-0.211-0.991-0.345-1.518-0.404c-1.123-0.128-2.294,0.434-3.279,0.189
        c-0.118-0.029-0.24-0.046-0.363-0.049c-0.103-0.039-0.212-0.067-0.322-0.085c-1-0.159-1.866-1.136-2.943-1.455
        C26.508,0.071,25.989-0.004,25.457,0c-0.526-0.004-1.045,0.071-1.555,0.221c-1.035,0.307-1.785,1.15-2.71,1.405
        c-0.954,0.059-1.91-0.459-2.983-0.391c-0.53,0.034-1.043,0.142-1.542,0.33c-0.496,0.177-0.958,0.426-1.384,0.743
        c-0.859,0.639-1.255,1.647-2.017,2.218c-0.876,0.362-1.92,0.207-2.898,0.633C9.881,5.373,9.435,5.649,9.031,5.994
        C8.625,6.329,8.275,6.721,7.982,7.165C7.359,8.107,7.33,9.404,6.667,10.17c-0.047,0.053-0.088,0.109-0.127,0.167
        c-0.028,0.032-0.055,0.065-0.08,0.099c-0.608,0.81-1.871,1.113-2.661,1.923c-0.37,0.38-0.679,0.804-0.923,1.276
        c-0.25,0.464-0.426,0.958-0.529,1.479c-0.221,1.107,0.242,2.32-0.086,3.279c-0.039,0.119-0.065,0.238-0.079,0.361
        c-0.047,0.103-0.085,0.209-0.113,0.319c-0.242,0.984-1.286,1.757-1.695,2.81c-0.193,0.495-0.311,1.006-0.351,1.536
        c-0.049,0.525-0.017,1.049,0.092,1.568c0.229,1.106,1.13,2.04,1.206,3.051c0.014,0.194,0.06,0.379,0.139,0.554
        c-0.029,0.181-0.025,0.366,0.007,0.55c0.178,0.996-0.46,2.128-0.405,3.256c0.024,0.531,0.125,1.046,0.304,1.546
        c0.169,0.498,0.41,0.964,0.72,1.395c0.661,0.917,1.866,1.405,2.346,2.297c0.04,0.076,0.087,0.149,0.139,0.218
        c0.029,0.06,0.061,0.119,0.098,0.176c0.545,0.853,0.391,2.149,0.869,3.165c0.225,0.481,0.516,0.918,0.872,1.311
        c0.347,0.397,0.748,0.735,1.2,1.014c0.961,0.595,2.258,0.587,3.044,1.23c0.034,0.028,0.069,0.054,0.106,0.079
        c0.728,0.639,1.019,1.766,1.809,2.519c0.386,0.367,0.814,0.669,1.289,0.907c0.466,0.244,0.963,0.413,1.487,0.511
        c1.109,0.207,2.316-0.27,3.281,0.043c0.117,0.038,0.237,0.063,0.357,0.076c0.103,0.046,0.208,0.082,0.318,0.108
        c0.987,0.23,1.773,1.264,2.832,1.66c0.496,0.186,1.009,0.299,1.54,0.332c0.523,0.042,1.05,0.003,1.568-0.111
        c1.104-0.243,2.027-1.154,3.038-1.242c0.124-0.01,0.244-0.034,0.36-0.071c0.111,0.003,0.223-0.006,0.332-0.024
        c0.999-0.174,2.127,0.47,3.256,0.422c0.532-0.022,1.046-0.119,1.548-0.295c0.5-0.166,0.967-0.407,1.399-0.713
        c0.92-0.655,1.416-1.856,2.312-2.33c0.108-0.058,0.208-0.127,0.302-0.206c0.103-0.04,0.203-0.092,0.296-0.152
        c0.853-0.55,2.141-0.399,3.163-0.884c0.481-0.228,0.916-0.519,1.308-0.878c0.395-0.349,0.732-0.751,1.009-1.204
        c0.592-0.962,0.577-2.26,1.216-3.047c0.077-0.096,0.145-0.198,0.198-0.307c0.079-0.078,0.151-0.164,0.214-0.256
        c0.568-0.84,1.815-1.203,2.566-2.049c0.352-0.397,0.64-0.836,0.861-1.319c0.226-0.475,0.38-0.978,0.458-1.502
        c0.167-1.117-0.353-2.307-0.073-3.28c0.034-0.118,0.054-0.238,0.063-0.36c0.042-0.102,0.075-0.209,0.096-0.319
        c0.195-0.995,1.201-1.818,1.56-2.888c0.168-0.504,0.263-1.019,0.276-1.551C51.019,25.894,50.961,25.369,50.829,24.856z"/>
    </svg>
